<svg xmlns="http://www.w3.org/2000/svg" viewBox="0 0 97.28 120"><defs><style>.cls-1{fill:#5b57a2;}.cls-2{fill:#d90751;}.cls-3{fill:#fab718;}.cls-4{fill:#ed6f26;}.cls-5{fill:#63b22f;}.cls-6{fill:#1487c9;}.cls-7{fill:#017f36;}.cls-8{fill:#984995;}.cls-9{fill:#fff;}</style></defs><title>Ресурс 1</title><g id="Слой_2" data-name="Слой 2"><g id="Слой_1-2" data-name="Слой 1"><path class="cls-1" d="M0,26.12l14.53,26V67.94L0,93.86Z"/><path class="cls-2" d="M55.8,42.64,69.41,34.3l27.87,0L55.8,59.68Z"/><path class="cls-3" d="M55.72,26l.08,34.39-14.57-9V0L55.72,26Z"/><path class="cls-4" d="M97.28,34.27l-27.87,0L55.72,26,41.23,0l56,34.27Z"/><path class="cls-5" d="M55.8,94V77.32L41.23,68.54V120Z"/><path class="cls-6" d="M69.38,85.74,14.53,52.1,0,26.12,97.22,85.7l-27.84,0Z"/><path class="cls-7" d="M41.24,120,55.8,94l13.58-8.27,27.84,0Z"/><path class="cls-8" d="M0,93.86,41.35,68.54,27.45,60,14.53,67.94Z"/><path class="cls-8" d="M0,0"/><path class="cls-8" d="M0,0"/><path class="cls-9" d="M0,0"/><path class="cls-9" d="M0,0"/><path class="cls-9" d="M0,0"/><path class="cls-9" d="M0,0"/><path class="cls-9" d="M0,0"/><path class="cls-9" d="M0,0"/></g></g></svg>